<svg width="1512" height="675" viewBox="0 0 1512 675" fill="none" xmlns="http://www.w3.org/2000/svg">
<rect width="1513" height="675" fill="white"/>
<rect x="0.5" y="0.5" width="1512" height="674" stroke="black" stroke-opacity="0.2"/>
<mask id="mask0_4407_3308" style="mask-type:luminance" maskUnits="userSpaceOnUse" x="442" y="196" width="629" height="285">
<path d="M1071 196H442V480.308H1071V196Z" fill="white"/>
</mask>
<g mask="url(#mask0_4407_3308)">
<path d="M766.851 380.476C765.16 376.636 764.314 373.65 763.469 371.517C762.626 369.383 761.358 367.25 760.09 365.117C758.824 362.984 757.134 361.704 754.6 360.424C752.487 359.144 749.953 358.291 746.572 358.291C743.193 358.291 740.659 359.144 738.125 360.424C736.012 361.704 734.321 362.984 733.056 365.117C731.788 367.25 730.519 369.81 729.254 372.797C727.986 375.783 727.14 378.769 725.872 380.903L696.304 457.269C695.036 460.255 694.191 462.816 693.768 464.522C692.923 466.228 692.923 467.937 692.923 469.642C692.923 472.201 693.768 474.762 696.304 476.896C698.415 479.027 701.372 480.308 704.33 480.308C707.709 480.308 710.243 479.027 711.511 476.896C713.202 475.188 715.313 470.923 717.426 464.95L722.916 450.018L729.254 432.099L746.151 383.462L763.892 432.099L770.229 450.018L775.719 464.95L778.678 471.348C779.524 473.482 780.366 475.188 781.635 476.468C782.48 477.749 783.325 478.602 784.591 479.027C786.282 479.88 787.55 480.308 789.661 480.308C792.617 480.308 795.576 479.027 797.687 476.896C800.223 474.762 801.066 472.201 801.066 469.215C801.066 466.656 799.8 462.389 797.687 456.844L766.851 380.476Z" fill="#1B1B37"/>
<path d="M516.348 380.476L512.546 371.517C511.701 369.383 510.434 367.25 509.167 365.117C507.899 362.984 506.21 361.704 503.675 360.424C501.563 359.144 499.028 358.291 495.649 358.291C492.269 358.291 489.735 359.144 487.623 360.424C485.088 361.704 483.398 362.984 482.131 365.117C480.864 367.25 479.596 369.81 478.329 372.797C477.062 375.783 476.217 378.769 475.372 380.903L445.379 457.269C444.112 460.255 443.267 462.816 442.845 464.522C442 466.228 442 467.937 442 469.642C442 472.201 443.267 474.762 445.379 476.896C447.492 479.027 450.449 480.308 453.406 480.308C456.785 480.308 459.32 479.027 461.009 476.896C462.277 475.188 464.389 470.923 466.501 464.95L471.993 450.018L478.329 432.099L495.649 383.462L512.969 432.099L519.305 450.018L524.797 464.95L527.754 471.348C528.598 473.482 529.866 475.188 530.711 476.468C531.556 477.749 532.4 478.602 534.09 479.027C535.357 479.88 536.624 480.308 538.737 480.308C541.694 480.308 544.651 479.027 546.763 476.896C549.298 474.762 550.142 472.201 550.142 469.215C550.142 466.656 548.875 462.389 546.763 456.844L516.348 380.476Z" fill="#1B1B37"/>
<path d="M665.891 461.536C664.2 459.402 661.244 458.549 657.442 458.549H609.283V372.797C609.283 368.103 608.018 364.264 606.327 362.131C603.793 359.571 601.257 358.291 597.456 358.291C594.077 358.291 591.12 359.571 589.007 362.131C586.896 364.264 585.628 368.103 585.628 372.797V463.669C585.628 468.789 586.896 472.629 589.007 474.762C591.543 476.896 594.922 478.174 600.412 478.174H657.442C661.244 478.174 664.2 477.321 666.311 475.615C668.002 473.91 669.27 471.348 669.27 468.362C669.27 465.803 668.002 463.242 665.891 461.536Z" fill="#1B1B37"/>
<path d="M1060.02 358.291C1056.64 358.291 1054.1 359.571 1052.41 361.704C1050.3 363.837 1049.45 367.25 1049.45 371.943V442.339L1003.83 372.797C1002.56 370.663 1001.3 368.53 1000.03 366.824C999.186 364.69 997.918 363.411 996.65 362.131C995.384 360.851 994.116 359.997 992.848 359.144C991.16 358.717 989.469 358.291 987.356 358.291C984.399 358.291 981.866 359.144 979.752 360.424C977.219 362.131 975.528 364.264 974.685 366.397C973.84 368.53 973.417 371.517 973.417 375.783V466.656C973.417 470.923 974.262 474.335 976.373 476.896C978.487 479.027 981.02 480.308 984.399 480.308C987.778 480.308 990.314 479.027 992.425 476.896C994.539 474.335 995.384 470.923 995.384 466.656V397.541L1039.74 466.228L1043.54 471.776C1044.81 473.482 1046.5 475.188 1047.76 476.468C1049.45 477.749 1050.72 478.602 1052.41 479.455C1054.1 479.88 1056.21 480.308 1058.32 480.308C1066.77 480.308 1071 475.188 1071 464.95V371.943C1071 367.677 1070.15 364.264 1068.04 361.704C1065.93 359.571 1063.39 358.291 1060.02 358.291Z" fill="#1B1B37"/>
<path d="M902.873 380.476C901.183 376.636 900.34 373.65 899.494 371.517C898.649 369.383 897.381 367.25 896.115 365.117C894.847 362.984 892.736 361.704 890.623 360.424C888.512 359.144 885.553 358.291 882.597 358.291C879.218 358.291 876.259 359.144 874.148 360.424C872.037 361.704 870.346 362.984 869.078 365.117C867.39 367.25 866.545 369.81 865.277 372.797L861.898 380.903L832.327 457.269C831.059 460.255 830.216 462.816 829.371 464.522C828.948 466.228 828.948 467.937 828.948 469.642C828.948 472.201 829.794 474.762 832.327 476.896C834.441 479.027 836.974 480.308 839.931 480.308C843.732 480.308 846.268 479.027 847.534 476.896C849.225 475.188 850.493 470.923 853.026 464.95L858.941 450.018L864.854 432.099L882.174 383.462L899.917 432.099L906.252 450.018L911.745 464.95L914.701 471.348C915.546 473.482 916.392 475.188 917.237 476.468C918.503 477.749 919.348 478.602 920.616 479.027C921.882 479.88 923.572 480.308 925.686 480.308C928.642 480.308 931.599 479.027 933.712 476.896C935.823 474.762 937.091 472.201 937.091 469.215C937.091 466.656 935.4 462.389 933.289 456.844L902.873 380.476Z" fill="#1B1B37"/>
<path d="M648.99 221.171C655.75 221.171 661.663 215.199 661.663 208.372C661.663 201.546 655.75 196 648.99 196C642.232 196 636.739 201.546 636.739 208.372C636.739 215.199 642.232 221.171 648.99 221.171Z" fill="#1B1B37"/>
<path d="M740.66 222.451C740.66 216.478 745.307 213.918 751.223 213.918C764.316 213.918 768.54 223.731 781.636 223.731C793.886 223.731 799.802 214.772 799.802 206.239C799.802 203.679 799.379 201.546 798.533 199.413H794.732C793.886 205.812 787.974 206.239 782.059 206.239C772.342 206.239 763.473 197.28 753.756 197.28C741.928 197.28 735.168 205.386 735.168 214.772C735.168 217.332 736.013 219.891 736.859 222.451H740.66Z" fill="#1B1B37"/>
<path d="M835.281 196C827.255 196 823.453 200.266 823.453 210.505V296.259H782.055V247.623C782.055 238.237 777.831 233.117 771.073 233.117C764.312 233.117 760.088 237.383 760.088 247.623V296.259H727.561C723.759 296.259 720.803 297.112 719.112 299.245C717.001 300.952 715.733 303.511 715.733 306.071C715.733 309.058 717.001 311.618 718.69 313.324C720.803 315.03 723.759 315.884 727.561 315.884H820.074C836.972 315.884 847.109 309.911 847.109 287.726V210.505C847.109 201.12 842.884 196 835.281 196Z" fill="#1B1B37"/>
<path d="M897.803 196C889.777 196 885.976 200.266 885.976 210.505V302.658C885.976 308.204 887.244 312.044 888.932 314.177C891.468 316.737 894.002 318.017 897.803 318.017C901.182 318.017 904.141 316.737 906.252 314.177C908.365 312.044 909.631 308.204 909.631 303.511V210.505C909.631 201.12 905.407 196 897.803 196Z" fill="#1B1B37"/>
<path d="M682.362 233.544C676.87 233.544 671.377 236.53 671.377 247.622V277.06C671.377 294.125 663.351 299.672 648.567 299.672C636.317 299.672 625.332 297.539 625.332 277.914V247.622C625.332 236.53 619.842 233.544 614.35 233.544C608.857 233.544 603.367 236.53 603.367 247.622V277.914C603.367 300.098 616.463 318.017 648.567 318.017C681.094 318.017 693.344 301.378 693.344 277.914V247.622C693.344 236.53 687.852 233.544 682.362 233.544Z" fill="#1B1B37"/>
</g>
</svg>
