<svg width="1512" height="675" viewBox="0 0 1512 675" fill="none" xmlns="http://www.w3.org/2000/svg">
<rect width="1513" height="675" fill="white"/>
<rect x="0.5" y="0.5" width="1512" height="674" stroke="black" stroke-opacity="0.2"/>
<g clip-path="url(#clip0_4407_3308)">
<path d="M360.81 375.096C360.81 395.927 343.94 412.795 323.108 412.795C302.275 412.795 285.405 395.927 285.405 375.096C285.405 354.266 302.275 337.398 323.108 337.398C343.94 337.398 360.81 354.266 360.81 375.096Z" fill="#D50037"/>
<path d="M360.81 299.699C360.81 320.529 343.94 337.398 323.108 337.398C302.275 337.398 285.405 320.529 285.405 299.699C285.405 278.868 302.298 262 323.108 262C343.917 262 360.81 278.868 360.81 299.699Z" fill="#D50037"/>
<path d="M285.405 299.699C285.405 278.868 268.535 262 247.703 262C226.87 262 210 278.868 210 299.699V375.096C210 395.927 226.87 412.795 247.703 412.795C268.535 412.795 285.405 395.927 285.405 375.096V299.699Z" fill="#D50037"/>
<path d="M398.745 291.033H442.518C448.451 291.033 453.665 292.145 458.137 294.393C462.633 296.64 466.062 299.676 468.449 303.499C470.836 307.322 472.018 311.562 472.018 316.22C472.018 320.529 470.998 324.561 468.982 328.268C466.966 331.999 464.255 334.988 460.825 337.235C465.946 339.483 469.77 342.657 472.273 346.735C474.775 350.813 476.05 355.239 476.05 360.012C476.05 364.785 474.845 369.049 472.412 372.872C469.979 376.695 466.503 379.731 461.961 381.955C457.419 384.202 452.066 385.315 445.855 385.315H398.698V291.033H398.745ZM441.846 330.238C445.091 330.238 447.709 329.218 449.725 327.133C451.741 325.071 452.761 322.591 452.761 319.718C452.761 316.845 451.741 314.366 449.725 312.304C447.709 310.241 445.068 309.199 441.846 309.199H418.279V330.215H441.846V330.238ZM444.535 367.149C447.779 367.149 450.397 366.152 452.413 364.183C454.429 362.213 455.449 359.781 455.449 356.907C455.449 354.034 454.429 351.578 452.413 349.562C450.397 347.546 447.756 346.527 444.535 346.527H418.256V367.149H444.535Z" fill="#202945"/>
<path d="M485.25 291.033H553.541V309.755H505.457V329.033H548.165V347.338H505.457V366.616H553.541V385.338H485.25V291.033Z" fill="#202945"/>
<path d="M594.395 356.374L562.323 291.033H583.897L604.359 333.482L624.844 291.033H646.395L614.741 355.842V385.338H594.395V356.374Z" fill="#202945"/>
<path d="M690.029 386.404C681.316 386.404 673.275 384.249 665.906 379.939C658.537 375.629 652.675 369.79 648.318 362.422C643.961 355.054 641.783 347.013 641.783 338.301C641.783 329.589 643.961 321.549 648.318 314.181C652.675 306.812 658.537 300.95 665.906 296.594C673.275 292.238 681.316 290.06 690.029 290.06C698.743 290.06 706.784 292.238 714.153 296.594C721.522 300.95 727.384 306.812 731.741 314.181C736.098 321.549 738.276 329.589 738.276 338.301C738.276 347.013 736.121 355.054 731.811 362.422C727.5 369.79 721.638 375.629 714.222 379.939C706.807 384.249 698.743 386.404 690.029 386.404ZM690.029 367.543C695.336 367.543 700.11 366.245 704.374 363.627C708.637 361.032 711.998 357.487 714.408 352.992C716.841 348.496 718.046 343.607 718.046 338.301C718.046 332.995 716.841 328.106 714.408 323.611C711.974 319.116 708.637 315.548 704.374 312.906C700.11 310.265 695.313 308.921 690.029 308.921C684.746 308.921 680.065 310.242 675.755 312.906C671.445 315.548 668.085 319.116 665.651 323.611C663.218 328.106 662.013 332.995 662.013 338.301C662.013 343.607 663.218 348.496 665.651 352.992C668.085 357.487 671.422 361.032 675.685 363.627C679.949 366.222 684.723 367.543 690.029 367.543Z" fill="#202945"/>
<path d="M747.823 291.033H780.15L811.943 365.944L811.827 291.033H831.617V385.338H800.241L767.636 308.017V385.338H747.823V291.033Z" fill="#202945"/>
<path d="M864.105 385.338V289.805H890.986L917.728 374.818L944.609 289.805H971.629V385.338H955.94V303.059L930.01 385.361H905.446L879.794 303.615V385.361H864.105V385.338Z" fill="#202945"/>
<path d="M1021.47 386.427C1011.18 386.427 1002.43 382.743 995.196 375.374C987.966 368.006 984.351 359.224 984.351 349.029C984.351 338.834 987.966 329.96 995.196 322.684C1002.43 315.409 1011.18 311.771 1021.47 311.771C1031.76 311.771 1040.52 315.432 1047.75 322.754C1054.98 330.076 1058.6 338.834 1058.6 349.029C1058.6 359.224 1054.96 368.122 1047.68 375.444C1040.41 382.766 1031.67 386.427 1021.47 386.427ZM1005.51 365.202C1009.89 369.698 1015.19 371.968 1021.47 371.968C1027.75 371.968 1033.08 369.721 1037.44 365.202C1041.82 360.707 1044 355.309 1044 349.029C1044 342.75 1041.82 337.351 1037.44 332.856C1033.08 328.361 1027.75 326.09 1021.47 326.09C1015.19 326.09 1009.86 328.338 1005.51 332.856C1001.15 337.351 998.95 342.75 998.95 349.029C998.95 355.309 1001.13 360.707 1005.51 365.202Z" fill="#202945"/>
<path d="M1070.74 385.338V312.999H1086.43V322.545C1091.99 315.362 1099.47 311.771 1108.95 311.771C1117.22 311.771 1124.36 314.435 1130.32 319.765C1136.27 325.094 1139.26 332.161 1139.26 340.989V385.338H1123.57V345.206C1123.57 339.39 1121.86 334.779 1118.45 331.42C1115.05 328.06 1110.88 326.368 1105.96 326.368C1100.24 326.368 1095.53 328.431 1091.9 332.578C1088.26 336.726 1086.43 341.893 1086.43 348.079V385.338H1070.74Z" fill="#202945"/>
<path d="M1188.13 386.427C1177.75 386.427 1168.97 382.766 1161.79 375.444C1154.6 368.122 1151.01 359.317 1151.01 349.029C1151.01 338.741 1154.65 329.844 1161.93 322.615C1169.2 315.385 1177.94 311.771 1188.13 311.771C1197.15 311.771 1205.07 314.713 1211.96 320.576C1218.82 326.438 1223.03 333.783 1224.59 342.611C1225.49 346.898 1225.54 350.976 1224.72 354.891H1166.58C1167.49 360.267 1169.94 364.507 1173.95 367.659C1177.96 370.787 1182.69 372.362 1188.16 372.362C1196.52 372.362 1203.22 369.396 1208.23 363.488L1222.15 367.172C1219.23 372.988 1214.6 377.668 1208.23 381.167C1201.85 384.666 1195.16 386.427 1188.16 386.427H1188.13ZM1166.56 342.75H1209.29C1208.39 337.931 1206 333.876 1202.13 330.609C1198.26 327.341 1193.56 325.696 1187.99 325.696C1182.43 325.696 1177.71 327.365 1173.79 330.678C1169.87 333.991 1167.46 338.023 1166.56 342.75Z" fill="#202945"/>
<path d="M1247.64 414L1259.39 384.921L1229.22 312.999H1245.74L1267.18 367.311L1287.52 312.999H1304.05L1263.77 414H1247.67H1247.64Z" fill="#202945"/>
</g>
<defs>
<clipPath id="clip0_4407_3308">
<rect width="1094" height="152" fill="white" transform="translate(210 262)"/>
</clipPath>
</defs>
</svg>
